<?xml version="1.0" encoding="iso-8859-1"?>
<!-- Generator: Adobe Illustrator 19.0.0, SVG Export Plug-In . SVG Version: 6.00 Build 0)  -->
<svg version="1.1" id="Capa_1" xmlns="http://www.w3.org/2000/svg" xmlns:xlink="http://www.w3.org/1999/xlink" x="0px" y="0px"
	 viewBox="0 0 465.569 465.569" style="enable-background:new 0 0 465.569 465.569;" xml:space="preserve">
<path style="fill:#DC4D41;" d="M324.784,150.881l-116,116L95.128,159.209c-24.473-23.187-38.338-55.415-38.344-89.128v-6.04
	C56.783,28.695,85.436,0.04,120.783,0.039c9.478,0,18.837,2.104,27.402,6.162l60.6,28.68l60.6-28.704
	c31.943-15.133,70.105-1.505,85.238,30.438c4.058,8.565,6.162,17.924,6.162,27.402C360.785,96.601,347.834,127.85,324.784,150.881z"
	/>
<path style="fill:#F0F0F0;" d="M256.784,106.881h-32v-32h-32v32h-32v32h32v32h32v-32h32V106.881z"/>
<g>
	<path style="fill:#B9B9B9;" d="M272.784,314.881h-128c-66.22-0.048-119.903-53.692-120-119.912v-16.088h16v16.088
		c0.088,57.387,46.613,103.872,104,103.912h128c57.387-0.04,103.912-46.525,104-103.912v-16.088h16v16.088
		C392.687,261.189,339.004,314.832,272.784,314.881z"/>
	<path style="fill:#B9B9B9;" d="M248.784,465.569h-16c-17.747-0.093-32.066-14.541-32-32.288v-126.4h16v126.4
		c-0.062,8.905,7.095,16.18,16,16.264h16c8.905-0.084,16.062-7.359,16-16.264v-38.224c-0.035-13.298,10.702-24.114,24-24.176h96v16
		h-96c-4.465,0.053-8.044,3.711-8,8.176v38.224C280.851,451.028,266.532,465.476,248.784,465.569z"/>
</g>
<g>
	<path style="fill:#4799CF;" d="M32.784,141.825L32.784,141.825c8.837,0,16,7.163,16,16v16c0,8.837-7.163,16-16,16l0,0
		c-8.837,0-16-7.163-16-16v-16C16.784,148.988,23.948,141.825,32.784,141.825z"/>
	<path style="fill:#4799CF;" d="M384.784,141.825L384.784,141.825c8.837,0,16,7.163,16,16v16c0,8.837-7.163,16-16,16l0,0
		c-8.837,0-16-7.163-16-16v-16C368.784,148.988,375.948,141.825,384.784,141.825z"/>
</g>
<path style="fill:#6C7175;" d="M352.784,378.881c-0.003,2.687,0.265,5.367,0.8,8h31.2v-16h-31.2
	C353.049,373.514,352.781,376.194,352.784,378.881z"/>
<circle style="fill:#B9B9B9;" cx="408.784" cy="378.881" r="40"/>
<g>
	<path style="fill:#6C7175;" d="M408.784,394.881c-8.499,0.332-15.657-6.289-15.989-14.788c-0.009-0.231-0.013-0.461-0.011-0.692
		c0-8.837,7.163-16,16-16s16,7.163,16,16c0.051,8.505-6.803,15.441-15.308,15.491C409.246,394.894,409.015,394.89,408.784,394.881z"
		/>
	<path style="fill:#6C7175;" d="M200.784,314.881h16v16h-16V314.881z"/>
</g>
<g>
</g>
<g>
</g>
<g>
</g>
<g>
</g>
<g>
</g>
<g>
</g>
<g>
</g>
<g>
</g>
<g>
</g>
<g>
</g>
<g>
</g>
<g>
</g>
<g>
</g>
<g>
</g>
<g>
</g>
</svg>
